<?xml version="1.0" encoding="UTF-8" standalone="no"?>
<!-- Generator: Adobe Illustrator 19.0.0, SVG Export Plug-In . SVG Version: 6.00 Build 0)  -->

<svg
   xmlns:dc="http://purl.org/dc/elements/1.1/"
   xmlns:cc="http://creativecommons.org/ns#"
   xmlns:rdf="http://www.w3.org/1999/02/22-rdf-syntax-ns#"
   xmlns:svg="http://www.w3.org/2000/svg"
   xmlns="http://www.w3.org/2000/svg"
   xmlns:sodipodi="http://sodipodi.sourceforge.net/DTD/sodipodi-0.dtd"
   xmlns:inkscape="http://www.inkscape.org/namespaces/inkscape"
   version="1.1"
   id="Capa_1"
   x="0px"
   y="0px"
   viewBox="0 0 58 58"
   style="enable-background:new 0 0 58 58;"
   xml:space="preserve"
   inkscape:version="0.48.4 r9939"
   width="100%"
   height="100%"
   sodipodi:docname="agenda.svg"><metadata
     id="metadata5146"><rdf:RDF><cc:Work
         rdf:about=""><dc:format>image/svg+xml</dc:format><dc:type
           rdf:resource="http://purl.org/dc/dcmitype/StillImage" /><dc:title></dc:title></cc:Work></rdf:RDF></metadata><defs
     id="defs5144" /><sodipodi:namedview
     pagecolor="#ffffff"
     bordercolor="#666666"
     borderopacity="1"
     objecttolerance="10"
     gridtolerance="10"
     guidetolerance="10"
     inkscape:pageopacity="0"
     inkscape:pageshadow="2"
     inkscape:window-width="1278"
     inkscape:window-height="1387"
     id="namedview5142"
     showgrid="false"
     inkscape:zoom="8"
     inkscape:cx="18.937922"
     inkscape:cy="20.595398"
     inkscape:window-x="0"
     inkscape:window-y="24"
     inkscape:window-maximized="0"
     inkscape:current-layer="Capa_1" /><path
     style="fill:#ead8bb;stroke:#000000;stroke-width:0.98823571;stroke-opacity:1"
     d="m 12.020127,0.75614208 c -2.306631,0 -4.2201544,1.71641072 -4.471223,3.90537112 L 7.518896,5.637856 c 0,2.1479541 1.8004924,3.9053711 4.001094,3.9053711 h 1.000274 3.00082 2.000548 L 19.522179,5.637856 h 12.003283 l -1.961537,3.82824 c -0.018,0.036125 0.009,0.077131 0.04902,0.077131 h 0.211057 20.706664 V 0.75614208 H 12.020127 z"
     id="path5098"
     inkscape:connector-curvature="0" /><path
     style="fill:#6b4842;stroke:#000000;stroke-width:0.98823571;stroke-miterlimit:4;stroke-opacity:1;stroke-dasharray:none"
     d="M 29.524915,9.5432271 V 35.124384 c 0,0.493053 -0.665182,0.673677 -0.925253,0.249944 l -5.076389,-8.256931 -5.076388,8.257908 c -0.260071,0.422756 -0.925253,0.243108 -0.925253,-0.249944 V 9.5432271 H 11.51999 c -2.2006018,0 -4.0010942,-1.757417 -4.0010942,-3.9053711 v 47.79979 c 0,2.179197 1.8104951,3.946377 4.0431062,3.946377 H 50.53066 V 9.5432271 H 29.524915 z"
     id="path5100"
     inkscape:connector-curvature="0" /><path
     style="fill:#513531"
     d="m 13.026384,9.9865767 -1.000273,0 c -1.919277,0 -3.2553275,-0.8833265 -3.997718,-1.6029785 L 8.025013,53.062236 c -1.904e-4,2.516093 1.4568452,3.872766 4.043107,3.872766 l 0.958262,0 z"
     id="path5102"
     inkscape:connector-curvature="0"
     sodipodi:nodetypes="cscsscc" /><path
     style="fill:#d3bea1"
     d="m 50.022288,2.6872533 h -9.002462 c -0.553152,0 -1.000274,0.4364253 -1.000274,0.9763428 0,0.5399176 0.447122,0.9763428 1.000274,0.9763428 h 9.002462 V 2.6872533 z"
     id="path5104"
     inkscape:connector-curvature="0" /><path
     style="fill:#d3bea1"
     d="m 50.022288,5.6162817 h -8.002189 c -0.553151,0 -1.000273,0.4364252 -1.000273,0.9763428 0,0.5399175 0.447122,0.9763427 1.000273,0.9763427 h 8.002189 V 5.6162817 z"
     id="path5106"
     inkscape:connector-curvature="0" /><path
     style="fill:#dd352e"
     d="M 19.522179,5.637856 17.521632,9.5432271 V 35.124384 c 0,0.493053 0.666182,0.673677 0.925253,0.249944 l 5.076388,-8.256931 5.076389,8.257908 c 0.260071,0.422756 0.925253,0.243108 0.925253,-0.249944 V 9.5432271 L 31.525462,5.637856 H 19.522179 z"
     id="path5108"
     inkscape:connector-curvature="0" /><polygon
     style="fill:#b02721"
     points="31.5,5 19.5,5 17.5,9 29.5,9 "
     id="polygon5110"
     transform="matrix(1.0002736,0,0,0.97634277,0.01684387,0.75614208)" /><g
     id="g5112" /><g
     id="g5114" /><g
     id="g5116" /><g
     id="g5118" /><g
     id="g5120" /><g
     id="g5122" /><g
     id="g5124" /><g
     id="g5126" /><g
     id="g5128" /><g
     id="g5130" /><g
     id="g5132" /><g
     id="g5134" /><g
     id="g5136" /><g
     id="g5138" /><g
     id="g5140" /></svg>