<?xml version="1.0" encoding="UTF-8" standalone="no"?>
<!-- Generator: Adobe Illustrator 19.0.0, SVG Export Plug-In . SVG Version: 6.00 Build 0)  -->

<svg
   xmlns:dc="http://purl.org/dc/elements/1.1/"
   xmlns:cc="http://creativecommons.org/ns#"
   xmlns:rdf="http://www.w3.org/1999/02/22-rdf-syntax-ns#"
   xmlns:svg="http://www.w3.org/2000/svg"
   xmlns="http://www.w3.org/2000/svg"
   xmlns:sodipodi="http://sodipodi.sourceforge.net/DTD/sodipodi-0.dtd"
   xmlns:inkscape="http://www.inkscape.org/namespaces/inkscape"
   version="1.1"
   id="Layer_1"
   x="0px"
   y="0px"
   viewBox="0 0 512.001 512.001"
   style="enable-background:new 0 0 512.001 512.001;"
   xml:space="preserve"
   inkscape:version="0.48.4 r9939"
   width="100%"
   height="100%"
   sodipodi:docname="create.svg"><metadata
     id="metadata4425"><rdf:RDF><cc:Work
         rdf:about=""><dc:format>image/svg+xml</dc:format><dc:type
           rdf:resource="http://purl.org/dc/dcmitype/StillImage" /><dc:title></dc:title></cc:Work></rdf:RDF></metadata><defs
     id="defs4423" /><sodipodi:namedview
     pagecolor="#ffffff"
     bordercolor="#666666"
     borderopacity="1"
     objecttolerance="10"
     gridtolerance="10"
     guidetolerance="10"
     inkscape:pageopacity="0"
     inkscape:pageshadow="2"
     inkscape:window-width="1278"
     inkscape:window-height="1387"
     id="namedview4421"
     showgrid="false"
     inkscape:zoom="0.65186279"
     inkscape:cx="-63.569499"
     inkscape:cy="171.81937"
     inkscape:window-x="0"
     inkscape:window-y="24"
     inkscape:window-maximized="0"
     inkscape:current-layer="Layer_1" /><path
     style="fill:#d6e5f6;stroke:#000000;stroke-width:10;stroke-linejoin:miter;stroke-miterlimit:4;stroke-opacity:1;stroke-dasharray:none"
     d="M 344.129,173.051 207.272,36.199 c -3.851,-3.85 -9.071,-6.014 -14.515,-6.014 H 28.529 C 17.191,30.186 8.0000004,39.379 8.0000004,50.714 v 410.571 c 0,11.339 9.1909996,20.529 20.5289996,20.529 h 301.085 c 11.337,0 20.529,-9.19 20.529,-20.529 V 187.567 c 0,-5.445 -2.163,-10.665 -6.014,-14.516 z"
     id="path4375"
     inkscape:connector-curvature="0" /><path
     style="fill:#a4c6ec"
     d="M 339.17075,174.9191 204.20167,41.262949 c -3.79788,-3.760093 -8.94586,-5.873557 -14.31477,-5.873557 H 169.6411 V 476.47069 h 155.21488 c 11.18061,0 20.24581,-8.97539 20.24581,-20.04959 V 189.09611 c 0,-5.31785 -2.13316,-10.41596 -5.93104,-14.17701 z"
     id="path4377"
     inkscape:connector-curvature="0" /><path
     style="fill:#385c8e"
     d="M 340.54571,175.9173 204.90954,40.434297 c -5.87637,-5.871 -10.49829,-6.283693 -27.47689,-5.40779 -9.59692,0.395506 -7.60517,-4.485895 -7.60517,19.92279 l 0,135.483003 c 0,11.337 9.19998,20.529 20.5513,20.529 l 135.63516,0 c 22.21348,0 19.44655,3.62812 19.17636,-14.78234 0.11732,-8.43603 1.23378,-14.38966 -4.64459,-20.26166 z"
     id="path4379"
     inkscape:connector-curvature="0"
     sodipodi:nodetypes="cccsssscc" /><g
     id="g4381"><path
       style="fill:#1D3366;"
       d="M239.5,344.958H102.643c-11.337,0-20.529,9.193-20.529,20.529c0,11.339,9.191,20.529,20.529,20.529   H239.5c11.337,0,20.529-9.19,20.529-20.529C260.028,354.15,250.837,344.958,239.5,344.958z"
       id="path4383" /><path
       style="fill:#1D3366;"
       d="M102.643,303.901H239.5c11.337,0,20.529-9.19,20.529-20.529c0-11.336-9.191-20.529-20.529-20.529   H102.643c-11.337,0-20.529,9.193-20.529,20.529C82.114,294.711,91.306,303.901,102.643,303.901z"
       id="path4385" /></g><path
     style="fill:#f6e27d;stroke:#000000;stroke-width:10;stroke-miterlimit:4;stroke-opacity:1;stroke-dasharray:none"
     d="m 499.988,36.199 c -3.85,-3.85 -9.071,-6.014 -14.516,-6.014 h -87.743 c -5.446,0 -10.667,2.164 -14.516,6.014 -3.85,3.851 -6.012,9.072 -6.012,14.516 l 0.003,366.703 c 0,5.444 2.162,10.664 6.014,14.514 l 43.87,43.871 c 4.009,4.01 9.262,6.012 14.515,6.012 5.253,0 10.508,-2.002 14.515,-6.012 l 43.87,-43.871 c 3.85,-3.851 6.014,-9.071 6.014,-14.514 L 506.005,50.715 C 506,45.272 503.838,40.051 499.988,36.199 z"
     id="path4387"
     inkscape:connector-curvature="0" /><path
     style="fill:#f2d23d"
     d="m 495.27871,40.940384 c -3.68787,-3.766775 -8.68902,-5.883997 -13.90473,-5.883997 H 439.34942 V 476.92165 c 5.03275,0 10.06551,-1.95873 13.90378,-5.88204 l 42.02264,-42.92265 c 3.68788,-3.76776 5.76075,-8.87491 5.76075,-14.20025 l 9.6e-4,-358.775094 c 0,-5.324361 -2.07096,-10.4325 -5.75884,-14.201232 z"
     id="path4389"
     inkscape:connector-curvature="0" /><g
     id="g4391" /><g
     id="g4393" /><g
     id="g4395" /><g
     id="g4397" /><g
     id="g4399" /><g
     id="g4401" /><g
     id="g4403" /><g
     id="g4405" /><g
     id="g4407" /><g
     id="g4409" /><g
     id="g4411" /><g
     id="g4413" /><g
     id="g4415" /><g
     id="g4417" /><g
     id="g4419" /></svg>