<?xml version="1.0" encoding="UTF-8" standalone="no"?>
<!-- Generator: Adobe Illustrator 19.0.0, SVG Export Plug-In . SVG Version: 6.00 Build 0)  -->

<svg
   xmlns:dc="http://purl.org/dc/elements/1.1/"
   xmlns:cc="http://creativecommons.org/ns#"
   xmlns:rdf="http://www.w3.org/1999/02/22-rdf-syntax-ns#"
   xmlns:svg="http://www.w3.org/2000/svg"
   xmlns="http://www.w3.org/2000/svg"
   xmlns:sodipodi="http://sodipodi.sourceforge.net/DTD/sodipodi-0.dtd"
   xmlns:inkscape="http://www.inkscape.org/namespaces/inkscape"
   version="1.1"
   id="Capa_1"
   x="0px"
   y="0px"
   viewBox="0 0 385 385"
   style="enable-background:new 0 0 385 385;"
   xml:space="preserve"
   inkscape:version="0.48.4 r9939"
   width="100%"
   height="100%"
   sodipodi:docname="draft.svg"><metadata
     id="metadata7461"><rdf:RDF><cc:Work
         rdf:about=""><dc:format>image/svg+xml</dc:format><dc:type
           rdf:resource="http://purl.org/dc/dcmitype/StillImage" /><dc:title></dc:title></cc:Work></rdf:RDF></metadata><defs
     id="defs7459" /><sodipodi:namedview
     pagecolor="#ffffff"
     bordercolor="#666666"
     borderopacity="1"
     objecttolerance="10"
     gridtolerance="10"
     guidetolerance="10"
     inkscape:pageopacity="0"
     inkscape:pageshadow="2"
     inkscape:window-width="1278"
     inkscape:window-height="1387"
     id="namedview7457"
     showgrid="false"
     inkscape:zoom="0.5"
     inkscape:cx="-111.91486"
     inkscape:cy="102.87945"
     inkscape:window-x="0"
     inkscape:window-y="24"
     inkscape:window-maximized="0"
     inkscape:current-layer="Capa_1" /><polygon
     points="77.326,355 83.327,385 233.318,355 157.5,355 "
     style="fill:#ff9811;stroke:#000000;stroke-width:8;stroke-miterlimit:4;stroke-opacity:1;stroke-dasharray:none"
     id="XMLID_1029_"
     transform="translate(0,-4)" /><polygon
     points="203.612,55 307.5,55 307.5,340.163 377.5,326.162 318.663,31.988 "
     style="fill:#ff9811;stroke:#000000;stroke-width:8;stroke-miterlimit:4;stroke-opacity:1;stroke-dasharray:none"
     id="XMLID_1030_" /><rect
     style="fill:#ffe98f;fill-opacity:1;stroke:#000000;stroke-width:8;stroke-linejoin:miter;stroke-miterlimit:4;stroke-opacity:1;stroke-dasharray:none"
     id="rect7999"
     width="291.26956"
     height="292.4231"
     x="16.149599"
     y="58.780872" /><rect
     style="fill:#ffda44;fill-opacity:1;stroke:none"
     id="rect8003"
     width="146.78889"
     height="284.42206"
     x="156.6236"
     y="62.782055" /><path
     inkscape:connector-curvature="0"
     d="m 142.49167,48.765007 c 0,-8.163475 6.73274,-14.804997 15.00833,-14.804997 8.27559,0 15.00833,6.641522 15.00833,14.804997 v 9.869997 49.349986 c 0,8.16348 -6.73274,14.805 -15.00833,14.805 -8.27559,0 -15.00833,-6.64152 -15.00833,-14.805 V 88.244998 h -30.01665 v 19.739992 c 0,24.49142 20.1982,44.41499 45.02498,44.41499 24.82678,0 45.02498,-19.92357 45.02498,-44.41499 V 58.635004 48.765007 c 0,-24.490425 -20.1982,-44.4149896 -45.02498,-44.4149896 -24.82678,0 -45.02498,19.9245646 -45.02498,44.4149896 v 9.869997 h 30.01665 v -9.869997 z"
     style="fill:#565659;stroke:#000000;stroke-width:7.95003462;stroke-miterlimit:4;stroke-opacity:1;stroke-dasharray:none"
     id="XMLID_1034_" /><g
     id="g7427" /><g
     id="g7429" /><g
     id="g7431" /><g
     id="g7433" /><g
     id="g7435" /><g
     id="g7437" /><g
     id="g7439" /><g
     id="g7441" /><g
     id="g7443" /><g
     id="g7445" /><g
     id="g7447" /><g
     id="g7449" /><g
     id="g7451" /><g
     id="g7453" /><g
     id="g7455" /></svg>