<?xml version="1.0" encoding="UTF-8" standalone="no"?>
<!-- Generator: Adobe Illustrator 19.0.0, SVG Export Plug-In . SVG Version: 6.00 Build 0)  -->

<svg
   xmlns:dc="http://purl.org/dc/elements/1.1/"
   xmlns:cc="http://creativecommons.org/ns#"
   xmlns:rdf="http://www.w3.org/1999/02/22-rdf-syntax-ns#"
   xmlns:svg="http://www.w3.org/2000/svg"
   xmlns="http://www.w3.org/2000/svg"
   xmlns:sodipodi="http://sodipodi.sourceforge.net/DTD/sodipodi-0.dtd"
   xmlns:inkscape="http://www.inkscape.org/namespaces/inkscape"
   version="1.1"
   id="Layer_1"
   x="0px"
   y="0px"
   viewBox="0 0 512 512"
   style="enable-background:new 0 0 512 512;"
   xml:space="preserve"
   inkscape:version="0.48.4 r9939"
   width="100%"
   height="100%"
   sodipodi:docname="paste.svg"><metadata
     id="metadata8266"><rdf:RDF><cc:Work
         rdf:about=""><dc:format>image/svg+xml</dc:format><dc:type
           rdf:resource="http://purl.org/dc/dcmitype/StillImage" /></cc:Work></rdf:RDF></metadata><defs
     id="defs8264" /><sodipodi:namedview
     pagecolor="#ffffff"
     bordercolor="#666666"
     borderopacity="1"
     objecttolerance="10"
     gridtolerance="10"
     guidetolerance="10"
     inkscape:pageopacity="0"
     inkscape:pageshadow="2"
     inkscape:window-width="1278"
     inkscape:window-height="1387"
     id="namedview8262"
     showgrid="false"
     inkscape:zoom="0.65186406"
     inkscape:cx="575.01215"
     inkscape:cy="71.669532"
     inkscape:window-x="1280"
     inkscape:window-y="24"
     inkscape:window-maximized="0"
     inkscape:current-layer="Layer_1" /><path
     d="M466.603,241.237l-65.707-61.099c0-0.341,0.171-0.597,0.171-0.939V42.667c0-4.693-3.84-8.533-8.533-8.533H332.8  c0-4.693-3.84-8.533-8.533-8.533h-34.133V8.533c0-4.693-3.84-8.533-8.533-8.533H162.133c-4.693,0-8.533,3.84-8.533,8.533V25.6  h-34.133c-4.693,0-8.533,3.84-8.533,8.533H51.2c-4.693,0-8.533,3.84-8.533,8.533v401.067c0,4.693,3.84,8.533,8.533,8.533  l93.867,0.171v51.029c0,2.304,0.853,4.437,2.475,6.059c1.621,1.536,3.755,2.475,6.059,2.475h307.2c4.693,0,8.533-3.84,8.533-8.533  v-256C469.333,245.077,468.309,242.859,466.603,241.237z M439.04,238.933h-89.173v-82.859L439.04,238.933z M128,42.667h34.133  c4.693,0,8.533-3.84,8.533-8.533V17.067h102.4v17.067c0,4.693,3.84,8.533,8.533,8.533h34.133v25.6H128V42.667z M145.067,136.533  v298.837L59.733,435.2v-384h51.2v25.6c0,4.693,3.84,8.533,8.533,8.533h204.8c4.693,0,8.533-3.84,8.533-8.533V51.2H384v113.323  l-34.133-31.659l-2.731-2.56c-1.536-1.451-3.669-2.304-5.803-2.304H153.6C148.907,128,145.067,131.84,145.067,136.533z   M452.267,494.933H162.133V145.067H332.8v102.4c0,4.693,3.84,8.533,8.533,8.533h110.933V494.933z"
     id="path8210" /><g
     id="g8212"><polygon
       style="fill:#7E939E;"
       points="439.04,238.933 349.867,238.933 349.867,156.075  "
       id="polygon8214" /><rect
       x="418.133"
       y="256"
       style="fill:#7E939E;"
       width="34.133"
       height="238.933"
       id="rect8216" /></g><path
     style="fill:#ecf0ff;fill-opacity:1"
     d="M418.133,256v238.933h-256V145.067H332.8v102.4c0,4.693,3.84,8.533,8.533,8.533H418.133z"
     id="path8218" /><g
     id="g8220"><rect
       x="170.667"
       y="17.067"
       style="fill:#7E939E;"
       width="102.4"
       height="8.533"
       id="rect8222" /><rect
       x="298.667"
       y="42.667"
       style="fill:#7E939E;"
       width="17.067"
       height="25.6"
       id="rect8224" /></g><path
     style="fill:#AFAFAF;"
     d="M298.667,42.667v25.6H128v-25.6h34.133c4.693,0,8.533-3.84,8.533-8.533V25.6h102.4v8.533  c0,4.693,3.84,8.533,8.533,8.533H298.667z"
     id="path8226" /><polygon
     style="fill:#593B32;"
     points="384,51.2 384,164.523 349.867,132.864 349.867,51.2 "
     id="polygon8228" /><path
     style="fill:#7A5A50;"
     d="M349.867,51.2v81.664l-2.731-2.56c-1.536-1.451-3.669-2.304-5.803-2.304H153.6  c-4.693,0-8.533,3.84-8.533,8.533v298.837L59.733,435.2v-384h51.2v25.6c0,4.693,3.84,8.533,8.533,8.533h204.8  c4.693,0,8.533-3.84,8.533-8.533V51.2H349.867z"
     id="path8230" /><g
     id="g8232" /><g
     id="g8234" /><g
     id="g8236" /><g
     id="g8238" /><g
     id="g8240" /><g
     id="g8242" /><g
     id="g8244" /><g
     id="g8246" /><g
     id="g8248" /><g
     id="g8250" /><g
     id="g8252" /><g
     id="g8254" /><g
     id="g8256" /><g
     id="g8258" /><g
     id="g8260" /></svg>