<?xml version="1.0" encoding="UTF-8" standalone="no"?>
<!-- Generator: Adobe Illustrator 19.0.0, SVG Export Plug-In . SVG Version: 6.00 Build 0)  -->

<svg
   xmlns:osb="http://www.openswatchbook.org/uri/2009/osb"
   xmlns:dc="http://purl.org/dc/elements/1.1/"
   xmlns:cc="http://creativecommons.org/ns#"
   xmlns:rdf="http://www.w3.org/1999/02/22-rdf-syntax-ns#"
   xmlns:svg="http://www.w3.org/2000/svg"
   xmlns="http://www.w3.org/2000/svg"
   xmlns:sodipodi="http://sodipodi.sourceforge.net/DTD/sodipodi-0.dtd"
   xmlns:inkscape="http://www.inkscape.org/namespaces/inkscape"
   version="1.1"
   id="Layer_1"
   x="0px"
   y="0px"
   viewBox="0 0 512 512"
   style="enable-background:new 0 0 512 512;"
   xml:space="preserve"
   inkscape:version="0.48.4 r9939"
   width="100%"
   height="100%"
   sodipodi:docname="printer.svg"><metadata
     id="metadata3256"><rdf:RDF><cc:Work
         rdf:about=""><dc:format>image/svg+xml</dc:format><dc:type
           rdf:resource="http://purl.org/dc/dcmitype/StillImage" /><dc:title></dc:title></cc:Work></rdf:RDF></metadata><defs
     id="defs3254"><linearGradient
       inkscape:collect="always"
       id="linearGradient4026"
       osb:paint="gradient"><stop
         style="stop-color:#000000;stop-opacity:1;"
         offset="0"
         id="stop4028" /><stop
         style="stop-color:#000000;stop-opacity:0;"
         offset="1"
         id="stop4030" /></linearGradient></defs><sodipodi:namedview
     pagecolor="#ffffff"
     bordercolor="#666666"
     borderopacity="1"
     objecttolerance="10"
     gridtolerance="10"
     guidetolerance="10"
     inkscape:pageopacity="0"
     inkscape:pageshadow="2"
     inkscape:window-width="1278"
     inkscape:window-height="1387"
     id="namedview3252"
     showgrid="false"
     inkscape:zoom="0.6171875"
     inkscape:cx="478.1443"
     inkscape:cy="308.92013"
     inkscape:window-x="0"
     inkscape:window-y="24"
     inkscape:window-maximized="0"
     inkscape:current-layer="Layer_1" /><path
     style="fill:#576D7E;stroke:#000000;stroke-opacity:1;stroke-width:9;stroke-miterlimit:4;stroke-dasharray:none"
     d="M480,144H32c-17.672,0-32,14.328-32,32v208c0,17.672,14.328,32,32,32h448c17.672,0,32-14.328,32-32  V176C512,158.328,497.672,144,480,144z"
     id="path3182" /><path
     style="fill:#748b9e"
     d="m 32,148.58228 h 440 l 0,0 0,0 c 0,8.84 -7.16,16 -16,16 H 48 c -8.84,0 -16,-7.16 -16,-16 l 0,0 0,0 z"
     id="path3184"
     inkscape:connector-curvature="0" /><g
     id="g3186"><circle
       style="fill:#84BD5A;"
       cx="72"
       cy="200"
       r="8"
       id="circle3188" /><circle
       style="fill:#84BD5A;"
       cx="40"
       cy="200"
       r="8"
       id="circle3190" /></g><path
     style="fill:#123247;"
     d="M80,280h352c4.416,0,8,3.584,8,8v24c0,4.416-3.584,8-8,8H80c-4.416,0-8-3.584-8-8v-24  C72,283.584,75.584,280,80,280z"
     id="path3192" /><path
     style="fill:#35495C;stroke:#000000;stroke-opacity:1;stroke-width:9;stroke-miterlimit:4;stroke-dasharray:none"
     d="M440,144H72l13.44-67.12c1.512-7.6,8.248-13.032,16-12.88h309.44c7.752-0.152,14.488,5.28,16,12.88  L440,144z"
     id="path3194" /><path
     style="fill:#E2E7F0;stroke-width:9;stroke-miterlimit:4;stroke-dasharray:none;stroke:#000000;stroke-opacity:1"
     d="M408,32c0-8.84-7.16-16-16-16H120c-8.84,0-16,7.16-16,16v112h304V32z"
     id="path3196" /><path
     style="fill:#c9d5e3"
     d="m 403.18987,43.594937 0,0 0,0 v 96.000003 l 0,0 h -16 l 0,0 V 59.594937 c 0,-8.84 7.16,-16 16,-16 z"
     id="path3198"
     inkscape:connector-curvature="0" /><g
     id="g3200"
     transform="translate(-4.7674356,-3.7880359)"><path
       style="fill:#3f556b"
       d="m 88,320 h 16 l 0,0 v 16 l 0,0 0,0 c -8.84,0 -16,-7.16 -16,-16 l 0,0 0,0 z"
       id="path3202"
       inkscape:connector-curvature="0" /><path
       style="fill:#3f556b"
       d="M 104,400 H 48 c -8.84,0 -16,7.16 -16,16 h 72 v -16 z"
       id="path3204"
       inkscape:connector-curvature="0" /><path
       style="fill:#3f556b"
       d="m 496,192 v 192 c 0,8.84 -7.16,16 -16,16 h -48 c -4.416,0 -8,-3.584 -8,-8 v -72 h -16 v 96 h 72 c 17.672,0 32,-14.328 32,-32 V 176 c -8.84,0 -16,7.16 -16,16 z"
       id="path3206"
       inkscape:connector-curvature="0" /></g><path
     style="fill:#E2E7F0;stroke:#000000;stroke-opacity:1;stroke-width:9;stroke-miterlimit:4;stroke-dasharray:none"
     d="M104,480c0,8.84,7.16,16,16,16h272c8.84,0,16-7.16,16-16V320H104V480z"
     id="path3208" /><g
     id="g3210"><path
       style="fill:#9DACBA;"
       d="M144,360h224c4.416,0,8,3.584,8,8l0,0c0,4.416-3.584,8-8,8H144c-4.416,0-8-3.584-8-8l0,0   C136,363.584,139.584,360,144,360z"
       id="path3212" /><path
       style="fill:#9DACBA;"
       d="M144,440h128c4.416,0,8,3.584,8,8l0,0c0,4.416-3.584,8-8,8H144c-4.416,0-8-3.584-8-8l0,0   C136,443.584,139.584,440,144,440z"
       id="path3214" /><path
       style="fill:#9DACBA;"
       d="M144,400h224c4.416,0,8,3.584,8,8l0,0c0,4.416-3.584,8-8,8H144c-4.416,0-8-3.584-8-8l0,0   C136,403.584,139.584,400,144,400z"
       id="path3216" /></g><path
     style="fill:#c9d5e3"
     d="M 395.93474,324.58277 H 108.3013 c 0,8.37964 6.95763,15.16677 15.54777,15.16677 h 256.53791 c 4.29118,0 7.77388,3.39735 7.77388,7.58338 v 121.33416 c 0,4.18603 -3.4827,7.58338 -7.77388,7.58338 H 139.39682 c -8.59014,0 -15.54775,6.78713 -15.54775,15.16677 h 264.31179 c 8.59014,0 15.54776,-6.78713 15.54776,-15.16677 V 324.58277 h -7.77388 z"
     id="path3218"
     inkscape:connector-curvature="0" /><path
     style="fill:#35495C;"
     d="M104,192h48c4.416,0,8,3.584,8,8l0,0c0,4.416-3.584,8-8,8h-48c-4.416,0-8-3.584-8-8l0,0  C96,195.584,99.584,192,104,192z"
     id="path3220" /><g
     id="g3222" /><g
     id="g3224" /><g
     id="g3226" /><g
     id="g3228" /><g
     id="g3230" /><g
     id="g3232" /><g
     id="g3234" /><g
     id="g3236" /><g
     id="g3238" /><g
     id="g3240" /><g
     id="g3242" /><g
     id="g3244" /><g
     id="g3246" /><g
     id="g3248" /><g
     id="g3250" /></svg>