<?xml version="1.0" encoding="UTF-8" standalone="no"?>
<!-- Generator: Adobe Illustrator 19.0.0, SVG Export Plug-In . SVG Version: 6.00 Build 0)  -->

<svg
   xmlns:dc="http://purl.org/dc/elements/1.1/"
   xmlns:cc="http://creativecommons.org/ns#"
   xmlns:rdf="http://www.w3.org/1999/02/22-rdf-syntax-ns#"
   xmlns:svg="http://www.w3.org/2000/svg"
   xmlns="http://www.w3.org/2000/svg"
   xmlns:sodipodi="http://sodipodi.sourceforge.net/DTD/sodipodi-0.dtd"
   xmlns:inkscape="http://www.inkscape.org/namespaces/inkscape"
   version="1.1"
   id="Layer_1"
   x="0px"
   y="0px"
   viewBox="0 0 491.52 491.52"
   style="enable-background:new 0 0 491.52 491.52;"
   xml:space="preserve"
   inkscape:version="0.48.4 r9939"
   width="100%"
   height="100%"
   sodipodi:docname="save.svg"><metadata
     id="metadata5863"><rdf:RDF><cc:Work
         rdf:about=""><dc:format>image/svg+xml</dc:format><dc:type
           rdf:resource="http://purl.org/dc/dcmitype/StillImage" /><dc:title></dc:title></cc:Work></rdf:RDF></metadata><defs
     id="defs5861" /><sodipodi:namedview
     pagecolor="#ffffff"
     bordercolor="#666666"
     borderopacity="1"
     objecttolerance="10"
     gridtolerance="10"
     guidetolerance="10"
     inkscape:pageopacity="0"
     inkscape:pageshadow="2"
     inkscape:window-width="1278"
     inkscape:window-height="1387"
     id="namedview5859"
     showgrid="false"
     inkscape:zoom="0.96028646"
     inkscape:cx="131.55725"
     inkscape:cy="94.373812"
     inkscape:window-x="0"
     inkscape:window-y="24"
     inkscape:window-maximized="0"
     inkscape:current-layer="Layer_1" /><path
     style="fill:#64798a;stroke:#000000;stroke-width:10.08092785;stroke-miterlimit:4;stroke-opacity:1;stroke-dasharray:none"
     d="M 421.3302,112.45004 358.24879,49.368625 c -3.83999,-3.839994 -9.0468,-5.997313 -14.47705,-5.997313 H 34.887035 c -11.307442,0 -20.474366,9.166084 -20.474366,20.474367 V 435.81097 c 0,11.30912 9.166924,20.4752 20.474366,20.4752 H 406.85232 c 11.30743,0 20.47435,-9.16608 20.47435,-20.4752 V 126.92709 c 8.6e-4,-5.4311 -2.15648,-10.6379 -5.99647,-14.47705 z"
     id="path5813"
     inkscape:connector-curvature="0" /><path
     style="fill:#ffffff"
     d="M 355.67899,228.79992 H 86.062032 c -9.787743,0 -17.722275,7.93453 -17.722275,17.72228 v 141.54883 c 0,9.78776 7.934532,17.72229 17.722275,17.72229 H 355.67899 c 9.78774,0 17.72227,-7.93453 17.72227,-17.72229 V 246.5222 c -8.4e-4,-9.78775 -7.93537,-17.72228 -17.72227,-17.72228 z"
     id="path5815"
     inkscape:connector-curvature="0" /><g
     id="g5817"
     transform="matrix(0.84007741,0,0,0.84007741,14.412669,48.411777)"><rect
       x="101.12"
       y="260.91501"
       style="fill:#ebf0f3"
       width="289.28"
       height="17.874001"
       id="rect5819" /><rect
       x="101.12"
       y="317.133"
       style="fill:#ebf0f3"
       width="289.28"
       height="17.874001"
       id="rect5821" /><rect
       x="101.12"
       y="373.35501"
       style="fill:#ebf0f3"
       width="289.28"
       height="17.874001"
       id="rect5823" /><path
       style="fill:#ebf0f3"
       d="m 114.721,0 v 110.368 c 0,10.347 8.388,18.735 18.736,18.735 h 224.608 c 10.347,0 18.735,-8.388 18.735,-18.735 V 0 H 114.721 z"
       id="path5825"
       inkscape:connector-curvature="0" /></g><rect
     x="274.93582"
     y="61.363251"
     style="fill:#3a556a"
     width="25.06707"
     height="70.298523"
     id="rect5827" /><g
     id="g5829" /><g
     id="g5831" /><g
     id="g5833" /><g
     id="g5835" /><g
     id="g5837" /><g
     id="g5839" /><g
     id="g5841" /><g
     id="g5843" /><g
     id="g5845" /><g
     id="g5847" /><g
     id="g5849" /><g
     id="g5851" /><g
     id="g5853" /><g
     id="g5855" /><g
     id="g5857" /><polygon
     points="157.5,355 77.326,355 83.327,385 233.318,355 "
     style="fill:#ff9811;stroke:#000000;stroke-width:8;stroke-miterlimit:4;stroke-opacity:1;stroke-dasharray:none"
     id="XMLID_1029_"
     transform="matrix(0.60536825,0,0,0.60536825,258.44445,211.2839)" /><polygon
     transform="matrix(0.60536825,0,0,0.60536825,258.44445,213.70537)"
     points="203.612,55 307.5,55 307.5,340.163 377.5,326.162 318.663,31.988 "
     style="fill:#ff9811;stroke:#000000;stroke-width:8;stroke-miterlimit:4;stroke-opacity:1;stroke-dasharray:none"
     id="XMLID_1030_" /><rect
     style="fill:#ffe98f;fill-opacity:1;stroke:#000000;stroke-width:4.84294653;stroke-linejoin:miter;stroke-miterlimit:4;stroke-opacity:1;stroke-dasharray:none"
     id="rect7999"
     width="176.32535"
     height="177.02367"
     x="268.22092"
     y="249.28944" /><rect
     style="fill:#ffda44;fill-opacity:1;stroke:none"
     id="rect8003"
     width="88.861328"
     height="172.18008"
     x="353.25943"
     y="251.71161" /><path
     inkscape:connector-curvature="0"
     d="m 344.70438,243.22615 c 0,-4.9419 4.07579,-8.96246 9.08556,-8.96246 5.00978,0 9.08556,4.02056 9.08556,8.96246 v 5.97499 29.87492 c 0,4.94191 -4.07578,8.96246 -9.08556,8.96246 -5.00977,0 -9.08556,-4.02055 -9.08556,-8.96246 V 267.1261 h -18.17113 v 11.94996 c 0,14.82632 12.22735,26.88741 27.25669,26.88741 15.02935,0 27.25669,-12.06109 27.25669,-26.88741 v -29.87492 -5.97499 c 0,-14.82572 -12.22734,-26.88742 -27.25669,-26.88742 -15.02934,0 -27.25669,12.0617 -27.25669,26.88742 v 5.97499 h 18.17113 v -5.97499 z"
     style="fill:#565659;stroke:#000000;stroke-width:4.81269884;stroke-miterlimit:4;stroke-opacity:1;stroke-dasharray:none"
     id="XMLID_1034_" /></svg>