<?xml version="1.0" encoding="UTF-8" standalone="no"?>
<!-- Generator: Adobe Illustrator 19.0.0, SVG Export Plug-In . SVG Version: 6.00 Build 0)  -->

<svg
   xmlns:dc="http://purl.org/dc/elements/1.1/"
   xmlns:cc="http://creativecommons.org/ns#"
   xmlns:rdf="http://www.w3.org/1999/02/22-rdf-syntax-ns#"
   xmlns:svg="http://www.w3.org/2000/svg"
   xmlns="http://www.w3.org/2000/svg"
   xmlns:sodipodi="http://sodipodi.sourceforge.net/DTD/sodipodi-0.dtd"
   xmlns:inkscape="http://www.inkscape.org/namespaces/inkscape"
   version="1.1"
   id="Layer_1"
   x="0px"
   y="0px"
   viewBox="0 0 491.52 491.52"
   style="enable-background:new 0 0 491.52 491.52;"
   xml:space="preserve"
   inkscape:version="0.48.4 r9939"
   width="100%"
   height="100%"
   sodipodi:docname="save.svg"><metadata
     id="metadata5863"><rdf:RDF><cc:Work
         rdf:about=""><dc:format>image/svg+xml</dc:format><dc:type
           rdf:resource="http://purl.org/dc/dcmitype/StillImage" /><dc:title></dc:title></cc:Work></rdf:RDF></metadata><defs
     id="defs5861" /><sodipodi:namedview
     pagecolor="#ffffff"
     bordercolor="#666666"
     borderopacity="1"
     objecttolerance="10"
     gridtolerance="10"
     guidetolerance="10"
     inkscape:pageopacity="0"
     inkscape:pageshadow="2"
     inkscape:window-width="1278"
     inkscape:window-height="1387"
     id="namedview5859"
     showgrid="false"
     inkscape:zoom="0.96028646"
     inkscape:cx="131.55725"
     inkscape:cy="94.373812"
     inkscape:window-x="0"
     inkscape:window-y="24"
     inkscape:window-maximized="0"
     inkscape:current-layer="Layer_1" /><path
     style="fill:#64798a;stroke:#000000;stroke-width:11.6029129;stroke-miterlimit:4;stroke-opacity:1;stroke-dasharray:none"
     d="M 477.52624,87.640306 404.92101,15.035072 C 400.50127,10.615328 394.50836,8.1323046 388.25826,8.1323046 H 32.739179 c -13.014602,0 -23.565518,10.5499494 -23.565518,23.5655184 V 459.82119 c 0,13.01653 10.550916,23.56648 23.565518,23.56648 H 460.86254 c 13.01459,0 23.56551,-10.54995 23.56551,-23.56648 V 104.30306 c 9.7e-4,-6.251072 -2.48206,-12.243978 -6.90181,-16.662754 z"
     id="path5813"
     inkscape:connector-curvature="0" /><path
     style="fill:#ffffff"
     d="M 401.96324,221.55631 H 91.640406 c -11.265464,0 -20.397924,9.13246 -20.397924,20.39793 v 162.9194 c 0,11.26548 9.13246,20.39793 20.397924,20.39793 H 401.96324 c 11.26546,0 20.39792,-9.13245 20.39792,-20.39793 v -162.9194 c -9.7e-4,-11.26547 -9.13343,-20.39793 -20.39792,-20.39793 z"
     id="path5815"
     inkscape:connector-curvature="0" /><g
     id="g5817"
     transform="matrix(0.9669095,0,0,0.9669095,9.173661,13.933762)"><rect
       x="101.12"
       y="260.91501"
       style="fill:#ebf0f3"
       width="289.28"
       height="17.874001"
       id="rect5819" /><rect
       x="101.12"
       y="317.133"
       style="fill:#ebf0f3"
       width="289.28"
       height="17.874001"
       id="rect5821" /><rect
       x="101.12"
       y="373.35501"
       style="fill:#ebf0f3"
       width="289.28"
       height="17.874001"
       id="rect5823" /><path
       style="fill:#ebf0f3"
       d="m 114.721,0 v 110.368 c 0,10.347 8.388,18.735 18.736,18.735 h 224.608 c 10.347,0 18.735,-8.388 18.735,-18.735 V 0 H 114.721 z"
       id="path5825"
       inkscape:connector-curvature="0" /></g><rect
     x="309.02972"
     y="28.840605"
     style="fill:#3a556a"
     width="28.851614"
     height="80.911957"
     id="rect5827" /><g
     id="g5829" /><g
     id="g5831" /><g
     id="g5833" /><g
     id="g5835" /><g
     id="g5837" /><g
     id="g5839" /><g
     id="g5841" /><g
     id="g5843" /><g
     id="g5845" /><g
     id="g5847" /><g
     id="g5849" /><g
     id="g5851" /><g
     id="g5853" /><g
     id="g5855" /><g
     id="g5857" /></svg>