<?xml version="1.0" encoding="UTF-8" standalone="no"?>
<!-- Generator: Adobe Illustrator 19.0.0, SVG Export Plug-In . SVG Version: 6.00 Build 0)  -->

<svg
   xmlns:dc="http://purl.org/dc/elements/1.1/"
   xmlns:cc="http://creativecommons.org/ns#"
   xmlns:rdf="http://www.w3.org/1999/02/22-rdf-syntax-ns#"
   xmlns:svg="http://www.w3.org/2000/svg"
   xmlns="http://www.w3.org/2000/svg"
   xmlns:sodipodi="http://sodipodi.sourceforge.net/DTD/sodipodi-0.dtd"
   xmlns:inkscape="http://www.inkscape.org/namespaces/inkscape"
   version="1.1"
   id="Layer_1"
   x="0px"
   y="0px"
   viewBox="0 0 491.52 491.52"
   style="enable-background:new 0 0 491.52 491.52;"
   xml:space="preserve"
   inkscape:version="0.48.4 r9939"
   width="100%"
   height="100%"
   sodipodi:docname="saveDraft.svg"><metadata
     id="metadata5863"><rdf:RDF><cc:Work
         rdf:about=""><dc:format>image/svg+xml</dc:format><dc:type
           rdf:resource="http://purl.org/dc/dcmitype/StillImage" /><dc:title></dc:title></cc:Work></rdf:RDF></metadata><defs
     id="defs5861" /><sodipodi:namedview
     pagecolor="#ffffff"
     bordercolor="#666666"
     borderopacity="1"
     objecttolerance="10"
     gridtolerance="10"
     guidetolerance="10"
     inkscape:pageopacity="0"
     inkscape:pageshadow="2"
     inkscape:window-width="1278"
     inkscape:window-height="1387"
     id="namedview5859"
     showgrid="false"
     inkscape:zoom="0.96028646"
     inkscape:cx="170.26085"
     inkscape:cy="111.80416"
     inkscape:window-x="0"
     inkscape:window-y="24"
     inkscape:window-maximized="0"
     inkscape:current-layer="Layer_1" /><path
     style="fill:#64798a;stroke:#000000;stroke-width:10.79020405;stroke-miterlimit:4;stroke-opacity:1;stroke-dasharray:none"
     d="M 448.31483,97.664933 380.79512,30.145224 c -4.11016,-4.11017 -9.68331,-6.419274 -15.49563,-6.419274 H 34.682213 c -12.103013,0 -21.914906,9.810994 -21.914906,21.914907 V 443.77696 c 0,12.10481 9.811893,21.9158 21.914906,21.9158 H 432.81831 c 12.10301,0 21.9149,-9.81099 21.9149,-21.9158 V 113.16057 c 9e-4,-5.81323 -2.30821,-11.38637 -6.41838,-15.495637 z"
     id="path5813"
     inkscape:connector-curvature="0" /><path
     style="fill:#ffffff"
     d="M 378.04453,222.20099 H 89.457792 c -10.476392,0 -18.969182,8.49279 -18.969182,18.96919 v 151.50795 c 0,10.47641 8.49279,18.96919 18.969182,18.96919 H 378.04453 c 10.47638,0 18.96918,-8.49278 18.96918,-18.96919 V 241.17018 c -9.1e-4,-10.4764 -8.4937,-18.96919 -18.96918,-18.96919 z"
     id="path5815"
     inkscape:connector-curvature="0" /><g
     id="g5817"
     transform="matrix(0.89918377,0,0,0.89918377,12.767307,29.121053)"><rect
       x="101.12"
       y="260.91501"
       style="fill:#ebf0f3"
       width="289.28"
       height="17.874001"
       id="rect5819" /><rect
       x="101.12"
       y="317.133"
       style="fill:#ebf0f3"
       width="289.28"
       height="17.874001"
       id="rect5821" /><rect
       x="101.12"
       y="373.35501"
       style="fill:#ebf0f3"
       width="289.28"
       height="17.874001"
       id="rect5823" /><path
       style="fill:#ebf0f3"
       d="m 114.721,0 v 110.368 c 0,10.347 8.388,18.735 18.736,18.735 h 224.608 c 10.347,0 18.735,-8.388 18.735,-18.735 V 0 H 114.721 z"
       id="path5825"
       inkscape:connector-curvature="0" /></g><rect
     x="291.62039"
     y="42.983768"
     style="fill:#3a556a"
     width="26.830746"
     height="75.244598"
     id="rect5827" /><g
     id="g5829" /><g
     id="g5831" /><g
     id="g5833" /><g
     id="g5835" /><g
     id="g5837" /><g
     id="g5839" /><g
     id="g5841" /><g
     id="g5843" /><g
     id="g5845" /><g
     id="g5847" /><g
     id="g5849" /><g
     id="g5851" /><g
     id="g5853" /><g
     id="g5855" /><g
     id="g5857" /><g
     transform="matrix(4.2656107,0,0,4.2656107,260.93635,221.21459)"
     id="g3508"><path
       inkscape:connector-curvature="0"
       style="fill:#1081e0"
       d="m 38,33.486 v 4.028 C 38,38.335 37.335,39 36.514,39 H 17.486 C 16.665,39 16,38.335 16,37.514 V 33.486 C 16,32.665 15.335,32 14.514,32 H 0.232 C 0.104,32 0,32.104 0,32.232 V 48.375 C 0,49.824 1.176,51 2.626,51 H 51.375 C 52.824,51 54,49.824 54,48.374 V 32.232 C 54,32.104 53.896,32 53.768,32 H 39.486 C 38.665,32 38,32.665 38,33.486 z"
       id="path3510" /><path
       inkscape:connector-curvature="0"
       style="fill:#13649b"
       d="M 44,3 H 10 L 0,32 v 0.231 C 0,32.104 0.104,32 0.232,32 H 14.514 C 15.335,32 16,32.665 16,33.486 v 4.028 C 16,38.335 16.665,39 17.486,39 H 36.514 C 37.335,39 38,38.335 38,37.514 V 33.486 C 38,32.665 38.665,32 39.486,32 H 53.768 C 53.896,32 54,32.104 54,32.231 V 31.997 L 44,3 z"
       id="path3512" /><path
       inkscape:connector-curvature="0"
       style="fill:#f2ecbf"
       d="M 14.514,32 C 15.335,32 16,32.665 16,33.486 v 4.028 C 16,38.335 16.665,39 17.486,39 H 36.514 C 37.335,39 38,38.335 38,37.514 V 33.486 C 38,32.665 38.665,32 39.486,32 H 46 V 29 24 H 8 v 5 3 h 6.514 z"
       id="path3514" /><rect
       x="11"
       y="16"
       style="fill:#d8d1ab"
       width="32"
       height="8"
       id="rect3516" /><rect
       x="14"
       y="8"
       style="fill:#bab395"
       width="26"
       height="8"
       id="rect3518" /></g></svg>