<?xml version="1.0" encoding="UTF-8" standalone="no"?>
<!-- Generator: Adobe Illustrator 19.0.0, SVG Export Plug-In . SVG Version: 6.00 Build 0)  -->

<svg
   xmlns:dc="http://purl.org/dc/elements/1.1/"
   xmlns:cc="http://creativecommons.org/ns#"
   xmlns:rdf="http://www.w3.org/1999/02/22-rdf-syntax-ns#"
   xmlns:svg="http://www.w3.org/2000/svg"
   xmlns="http://www.w3.org/2000/svg"
   xmlns:sodipodi="http://sodipodi.sourceforge.net/DTD/sodipodi-0.dtd"
   xmlns:inkscape="http://www.inkscape.org/namespaces/inkscape"
   version="1.1"
   id="Layer_1"
   x="0px"
   y="0px"
   viewBox="0 0 512.001 512.001"
   style="enable-background:new 0 0 512.001 512.001;"
   xml:space="preserve"
   inkscape:version="0.48.4 r9939"
   width="100%"
   height="100%"
   sodipodi:docname="compare2.svg"><metadata
     id="metadata43"><rdf:RDF><cc:Work
         rdf:about=""><dc:format>image/svg+xml</dc:format><dc:type
           rdf:resource="http://purl.org/dc/dcmitype/StillImage" /><dc:title></dc:title></cc:Work></rdf:RDF></metadata><defs
     id="defs41" /><sodipodi:namedview
     pagecolor="#ffffff"
     bordercolor="#666666"
     borderopacity="1"
     objecttolerance="10"
     gridtolerance="10"
     guidetolerance="10"
     inkscape:pageopacity="0"
     inkscape:pageshadow="2"
     inkscape:window-width="1278"
     inkscape:window-height="1387"
     id="namedview39"
     showgrid="false"
     inkscape:zoom="0.65186279"
     inkscape:cx="729.05208"
     inkscape:cy="423.76489"
     inkscape:window-x="1280"
     inkscape:window-y="24"
     inkscape:window-maximized="0"
     inkscape:current-layer="Layer_1" /><g
     id="g9" /><g
     id="g11" /><g
     id="g13" /><g
     id="g15" /><g
     id="g17" /><g
     id="g19" /><g
     id="g21" /><g
     id="g23" /><g
     id="g25" /><g
     id="g27" /><g
     id="g29" /><g
     id="g31" /><g
     id="g33" /><g
     id="g35" /><g
     id="g37" /><g
     transform="matrix(28.318585,0,0,28.318585,0.01744837,-0.18025369)"
     id="g3"><g
       id="g5"><path
         style="fill:#bababa"
         inkscape:connector-curvature="0"
         d="m 6.504,10.283 c -0.101,0 -0.197,0.039 -0.269,0.111 -0.071,0.07 -0.111,0.167 -0.111,0.269 l 0.008,2.55 H 1.026 V 2.245 H 8.54 v 1.36 C 8.691,3.503 8.874,3.443 9.07,3.443 H 9.617 V 1.729 C 9.617,1.541 9.464,1.387 9.275,1.387 H 0.342 C 0.154,1.387 0,1.54 0,1.729 v 12.046 c 0,0.189 0.153,0.343 0.342,0.343 h 6.664 c 0.097,0 0.19,-0.042 0.255,-0.114 l 0.853,-0.956 v -2.764 l -1.61,-0.001 0,0 z"
         id="path7-7" /><path
         style="fill:#bababa"
         inkscape:connector-curvature="0"
         d="M 5.48,9.182 7.688,7.355 c 0,0 0.175,-0.15 0.018,-0.307 C 7.49,6.832 5.427,5.278 5.427,5.278 c 0,0 -0.274,-0.276 -0.274,0.09 0,0.367 0,0.951 0,0.951 0,0 -0.159,0 -0.403,0 -0.75,0 -2.212,0 -2.771,0 0,0 -0.131,-0.004 -0.131,0.166 0,0.169 0,1.211 0,1.448 0,0.237 0.157,0.197 0.157,0.197 0.575,0 1.988,0 2.765,0 0.272,0 0.448,0 0.448,0 0,0 0,0.729 0,1.029 -0.001,0.3 0.262,0.023 0.262,0.023 z"
         id="path9" /><path
         style="fill:#bababa"
         inkscape:connector-curvature="0"
         d="M 17.738,3.962 H 8.803 c -0.188,0 -0.341,0.153 -0.341,0.342 V 16.35 c 0,0.188 0.153,0.342 0.341,0.342 h 6.664 c 0.098,0 0.19,-0.042 0.255,-0.114 l 2.271,-2.542 C 18.05,13.973 18.08,13.892 18.08,13.809 V 4.305 c 0,-0.189 -0.154,-0.343 -0.342,-0.343 z m -0.735,8.897 -2.037,-10e-4 c -10e-4,0 -10e-4,0 -10e-4,0 -0.101,0 -0.196,0.04 -0.268,0.11 -0.072,0.07 -0.111,0.168 -0.11,0.269 l 0.007,2.55 H 9.49 V 4.819 h 7.514 l -0.001,8.04 0,0 z"
         id="path11" /><path
         style="fill:#bababa"
         inkscape:connector-curvature="0"
         d="m 12.654,12.288 c 0,0 0.274,0.275 0.274,-0.09 0,-0.367 0,-0.951 0,-0.951 0,0 0.158,0 0.402,0 0.751,0 2.212,0 2.771,0 0,0 0.132,0.005 0.132,-0.165 0,-0.17 0,-1.211 0,-1.449 0,-0.237 -0.156,-0.196 -0.156,-0.196 -0.575,0 -1.989,0 -2.766,0 -0.271,0 -0.448,0 -0.448,0 0,0 0,-0.728 0,-1.029 0,-0.301 -0.262,-0.023 -0.262,-0.023 l -2.209,1.826 c 0,0 -0.175,0.15 -0.018,0.308 0.216,0.214 2.28,1.769 2.28,1.769 z"
         id="path13" /></g></g></svg>