<?xml version="1.0" encoding="UTF-8" standalone="no"?>
<!-- Generator: Adobe Illustrator 19.0.0, SVG Export Plug-In . SVG Version: 6.00 Build 0)  -->

<svg
   xmlns:dc="http://purl.org/dc/elements/1.1/"
   xmlns:cc="http://creativecommons.org/ns#"
   xmlns:rdf="http://www.w3.org/1999/02/22-rdf-syntax-ns#"
   xmlns:svg="http://www.w3.org/2000/svg"
   xmlns="http://www.w3.org/2000/svg"
   xmlns:sodipodi="http://sodipodi.sourceforge.net/DTD/sodipodi-0.dtd"
   xmlns:inkscape="http://www.inkscape.org/namespaces/inkscape"
   version="1.1"
   id="Layer_1"
   x="0px"
   y="0px"
   viewBox="0 0 512.001 512.001"
   style="enable-background:new 0 0 512.001 512.001;"
   xml:space="preserve"
   inkscape:version="0.48.4 r9939"
   width="100%"
   height="100%"
   sodipodi:docname="cross.svg"><metadata
     id="metadata43"><rdf:RDF><cc:Work
         rdf:about=""><dc:format>image/svg+xml</dc:format><dc:type
           rdf:resource="http://purl.org/dc/dcmitype/StillImage" /><dc:title></dc:title></cc:Work></rdf:RDF></metadata><defs
     id="defs41" /><sodipodi:namedview
     pagecolor="#ffffff"
     bordercolor="#666666"
     borderopacity="1"
     objecttolerance="10"
     gridtolerance="10"
     guidetolerance="10"
     inkscape:pageopacity="0"
     inkscape:pageshadow="2"
     inkscape:window-width="2560"
     inkscape:window-height="1416"
     id="namedview39"
     showgrid="false"
     inkscape:zoom="0.4609366"
     inkscape:cx="-95.457814"
     inkscape:cy="256.0005"
     inkscape:window-x="0"
     inkscape:window-y="24"
     inkscape:window-maximized="1"
     inkscape:current-layer="Layer_1" /><polygon
     style="fill:#bababa;fill-opacity:1"
     points="333.284,256.008 497.51,91.782 420.227,14.498 256.001,178.725 254.635,177.358   91.775,14.498 14.491,91.782 178.717,256.008 178.416,256.309 14.491,420.221 91.775,497.504 254.635,334.658 256.001,333.292   420.227,497.504 497.51,420.221 333.585,256.309 "
     id="polygon3" /><polygon
     style="fill:#ababab;fill-opacity:1"
     points="254.635,177.358 91.775,14.498 14.491,91.782 178.717,256.008 178.416,256.309   14.491,420.221 91.775,497.504 254.635,334.658 256.001,333.292 256.001,178.725 "
     id="polygon5" /><path
     d="M420.227,511.994L256.001,347.781L91.775,511.994L0,420.221l164.226-164.212L0,91.782L91.775,0.008l164.226,164.226  L420.227,0.007L512,91.781L347.775,256.007l164.226,164.212L420.227,511.994z M256.001,318.802l164.226,164.211l62.793-62.793  L318.794,256.008L483.02,91.782l-62.793-62.793L256.001,193.215L91.775,28.988L28.98,91.782l164.226,164.226L28.98,420.221  l62.793,62.793L256.001,318.802z"
     id="path7" /><g
     id="g9" /><g
     id="g11" /><g
     id="g13" /><g
     id="g15" /><g
     id="g17" /><g
     id="g19" /><g
     id="g21" /><g
     id="g23" /><g
     id="g25" /><g
     id="g27" /><g
     id="g29" /><g
     id="g31" /><g
     id="g33" /><g
     id="g35" /><g
     id="g37" /></svg>