<?xml version="1.0" encoding="UTF-8" standalone="no"?>
<!-- Generator: Adobe Illustrator 16.0.0, SVG Export Plug-In . SVG Version: 6.00 Build 0)  -->

<svg
   xmlns:dc="http://purl.org/dc/elements/1.1/"
   xmlns:cc="http://creativecommons.org/ns#"
   xmlns:rdf="http://www.w3.org/1999/02/22-rdf-syntax-ns#"
   xmlns:svg="http://www.w3.org/2000/svg"
   xmlns="http://www.w3.org/2000/svg"
   xmlns:sodipodi="http://sodipodi.sourceforge.net/DTD/sodipodi-0.dtd"
   xmlns:inkscape="http://www.inkscape.org/namespaces/inkscape"
   version="1.1"
   id="Capa_1"
   x="0px"
   y="0px"
   width="512px"
   height="512px"
   viewBox="0 0 444.819 444.819"
   style="enable-background:new 0 0 444.819 444.819;"
   xml:space="preserve"
   inkscape:version="0.48.4 r9939"
   sodipodi:docname="down.svg"><metadata
     id="metadata41"><rdf:RDF><cc:Work
         rdf:about=""><dc:format>image/svg+xml</dc:format><dc:type
           rdf:resource="http://purl.org/dc/dcmitype/StillImage" /><dc:title></dc:title></cc:Work></rdf:RDF></metadata><defs
     id="defs39" /><sodipodi:namedview
     pagecolor="#ffffff"
     bordercolor="#666666"
     borderopacity="1"
     objecttolerance="10"
     gridtolerance="10"
     guidetolerance="10"
     inkscape:pageopacity="0"
     inkscape:pageshadow="2"
     inkscape:window-width="2560"
     inkscape:window-height="1416"
     id="namedview37"
     showgrid="false"
     inkscape:zoom="0.4609375"
     inkscape:cx="-95.457627"
     inkscape:cy="256"
     inkscape:window-x="0"
     inkscape:window-y="24"
     inkscape:window-maximized="1"
     inkscape:current-layer="Capa_1" /><g
     id="g3"
     style="fill:#8a8a8a;fill-opacity:1"><path
       d="M434.252,114.203l-21.409-21.416c-7.419-7.04-16.084-10.561-25.975-10.561c-10.095,0-18.657,3.521-25.7,10.561   L222.41,231.549L83.653,92.791c-7.042-7.04-15.606-10.561-25.697-10.561c-9.896,0-18.559,3.521-25.979,10.561l-21.128,21.416   C3.615,121.436,0,130.099,0,140.188c0,10.277,3.619,18.842,10.848,25.693l185.864,185.865c6.855,7.23,15.416,10.848,25.697,10.848   c10.088,0,18.75-3.617,25.977-10.848l185.865-185.865c7.043-7.044,10.567-15.608,10.567-25.693   C444.819,130.287,441.295,121.629,434.252,114.203z"
       fill="#bababa"
       id="path5"
       style="fill:#8a8a8a;fill-opacity:1" /></g><g
     id="g7" /><g
     id="g9" /><g
     id="g11" /><g
     id="g13" /><g
     id="g15" /><g
     id="g17" /><g
     id="g19" /><g
     id="g21" /><g
     id="g23" /><g
     id="g25" /><g
     id="g27" /><g
     id="g29" /><g
     id="g31" /><g
     id="g33" /><g
     id="g35" /></svg>