<?xml version="1.0" encoding="UTF-8" standalone="no"?>
<!-- Generator: Adobe Illustrator 16.0.0, SVG Export Plug-In . SVG Version: 6.00 Build 0)  -->

<svg
   xmlns:dc="http://purl.org/dc/elements/1.1/"
   xmlns:cc="http://creativecommons.org/ns#"
   xmlns:rdf="http://www.w3.org/1999/02/22-rdf-syntax-ns#"
   xmlns:svg="http://www.w3.org/2000/svg"
   xmlns="http://www.w3.org/2000/svg"
   xmlns:sodipodi="http://sodipodi.sourceforge.net/DTD/sodipodi-0.dtd"
   xmlns:inkscape="http://www.inkscape.org/namespaces/inkscape"
   version="1.1"
   id="Capa_1"
   x="0px"
   y="0px"
   width="512px"
   height="512px"
   viewBox="0 0 444.819 444.819"
   style="enable-background:new 0 0 444.819 444.819;"
   xml:space="preserve"
   inkscape:version="0.48.4 r9939"
   sodipodi:docname="down.svg"><metadata
     id="metadata3119"><rdf:RDF><cc:Work
         rdf:about=""><dc:format>image/svg+xml</dc:format><dc:type
           rdf:resource="http://purl.org/dc/dcmitype/StillImage" /><dc:title></dc:title></cc:Work></rdf:RDF></metadata><defs
     id="defs3117" /><sodipodi:namedview
     pagecolor="#ffffff"
     bordercolor="#666666"
     borderopacity="1"
     objecttolerance="10"
     gridtolerance="10"
     guidetolerance="10"
     inkscape:pageopacity="0"
     inkscape:pageshadow="2"
     inkscape:window-width="2560"
     inkscape:window-height="1416"
     id="namedview3115"
     showgrid="false"
     inkscape:zoom="0.87283493"
     inkscape:cx="589.93053"
     inkscape:cy="21.89512"
     inkscape:window-x="0"
     inkscape:window-y="24"
     inkscape:window-maximized="1"
     inkscape:current-layer="Capa_1" /><g
     id="g3081"
     transform="matrix(0,-1,1,0,-9.9989362e-4,444.819)"><path
       d="M 434.252,114.203 412.843,92.787 c -7.419,-7.04 -16.084,-10.561 -25.975,-10.561 -10.095,0 -18.657,3.521 -25.7,10.561 L 222.41,231.549 83.653,92.791 C 76.611,85.751 68.047,82.23 57.956,82.23 48.06,82.23 39.397,85.751 31.977,92.791 L 10.849,114.207 C 3.615,121.436 0,130.099 0,140.188 c 0,10.277 3.619,18.842 10.848,25.693 l 185.864,185.865 c 6.855,7.23 15.416,10.848 25.697,10.848 10.088,0 18.75,-3.617 25.977,-10.848 L 434.251,165.881 c 7.043,-7.044 10.567,-15.608 10.567,-25.693 0.001,-9.901 -3.523,-18.559 -10.566,-25.985 z"
       id="path3083"
       inkscape:connector-curvature="0"
       style="fill:#545454" /></g><g
     id="g3085" /><g
     id="g3087" /><g
     id="g3089" /><g
     id="g3091" /><g
     id="g3093" /><g
     id="g3095" /><g
     id="g3097" /><g
     id="g3099" /><g
     id="g3101" /><g
     id="g3103" /><g
     id="g3105" /><g
     id="g3107" /><g
     id="g3109" /><g
     id="g3111" /><g
     id="g3113" /></svg>